<?xml version="1.0" encoding="UTF-8"?>
<svg id="Layer_4" data-name="Layer 4" xmlns="http://www.w3.org/2000/svg" viewBox="0 0 214.52 230.07">
  <defs>
    <style>
      .cls-1, .cls-2, .cls-3 {
        stroke: #4c8dff;
        stroke-miterlimit: 10;
      }

      .cls-1, .cls-4 {
        fill: #fff;
      }

      .cls-2, .cls-5 {
        fill: #4c8dff;
      }

      .cls-5, .cls-4 {
        stroke-width: 0px;
      }

      .cls-3 {
        fill: none;
        stroke-width: 4px;
      }
    </style>
  </defs>
  <g>
    <path class="cls-4" d="M214.52,117.84h-.58c.36-.61.58-1.3.58-2.11,0-4.88-7.34-5.91-13.5-5.91s-13.5,1.03-13.5,5.91c0,.81.22,1.5.58,2.11h-.58v15.31l.67.54-.67.38v54.58l1.27,1.01c.23.18,5.69,4.49,12.67,4.49,4.28,0,8.16-1.56,11.54-4.63l1.1-1,.33-54.62-.54-.3.54-.41.1-15.34h-.59s0-.02.01-.03h.58Z"/>
    <ellipse class="cls-5" cx="202.41" cy="116.34" rx="11.17" ry="2.79"/>
    <path class="cls-5" d="M213.49,133.78l.1-15.1c0,1.29-5,2.33-11.17,2.33s-11.17-1.04-11.17-2.33v15.11c4.35,3.52,18.29,3.02,22.25,0Z"/>
    <path class="cls-5" d="M194.79,137.99c-1.09-.32-2.43-.75-3.55-1.41v58.44s11.64,9.31,21.88,0l.36-58.63c-4.86,3.16-13.62,2.87-18.68,1.6Z"/>
  </g>
  <g>
    <polygon class="cls-2" points="190.52 .52 .52 7.52 7.52 224.52 12.52 229.52 189.52 188.52 190.52 .52"/>
    <path class="cls-1" d="M111.77,41.98c27.81,1.26,49.4,22.08,50.93,52,.03.68.06,1.37.07,2.05l-43.03,2.92c-1.58-6.23-6.03-10.79-11.84-12.54l3.87-44.43ZM79.89,101.66c2.63-6.33,7.8-11.68,14.17-14.31l3.87-44.41c-.67.12-1.35.25-2.02.39-29.64,6.28-53.48,32.05-59.07,61.25l43.05-2.92ZM90.48,128.48c-5.81-1.75-10.25-6.31-11.84-12.54l-43.03,2.92c.01.68.03,1.36.07,2.05,1.53,29.92,23.12,50.74,50.93,52l3.87-44.43ZM118.5,113.24c-2.63,6.33-7.8,11.68-14.17,14.31l-3.87,44.41c.67-.12,1.35-.25,2.02-.39,29.64-6.28,53.48-32.05,59.07-61.25l-43.05,2.92Z"/>
  </g>
  <g>
    <path class="cls-4" d="M202.52,129.15h-.58c.36-.61.58-1.3.58-2.11,0-4.88-7.34-5.91-13.5-5.91s-13.5,1.03-13.5,5.91c0,.81.22,1.5.58,2.11h-.58v15.31l.67.54-.67.38v54.58l1.27,1.01c.23.18,5.69,4.49,12.67,4.49,4.28,0,8.16-1.56,11.54-4.63l1.1-1,.33-54.62-.54-.3.54-.41.1-15.34h-.59s0-.02.01-.03h.58Z"/>
    <ellipse class="cls-5" cx="190.41" cy="127.65" rx="11.17" ry="2.79"/>
    <path class="cls-5" d="M201.49,145.09l.1-15.1c0,1.29-5,2.33-11.17,2.33s-11.17-1.04-11.17-2.33v15.11c4.35,3.52,18.29,3.02,22.25,0Z"/>
    <path class="cls-5" d="M182.79,149.29c-1.09-.32-2.43-.75-3.55-1.41v58.44s11.64,9.31,21.88,0l.36-58.63c-4.86,3.16-13.62,2.87-18.68,1.6Z"/>
  </g>
  <path class="cls-3" d="M144.52,148.02v-25.21s-3.5-8.79,19.5-6.79"/>
  <g>
    <path class="cls-4" d="M173.52,123.13h-.62c.39-.66.62-1.4.62-2.27,0-5.24-7.89-6.34-14.5-6.34s-14.5,1.1-14.5,6.34c0,.87.23,1.61.62,2.27h-.62v16.44l.72.58-.72.41v58.63l1.36,1.09c.25.2,6.11,4.82,13.61,4.82,4.59,0,8.76-1.67,12.39-4.97l1.18-1.07.36-58.66-.58-.32.58-.44.11-16.47h-.64s0-.02.01-.03h.62Z"/>
    <ellipse class="cls-5" cx="160.52" cy="121.52" rx="12" ry="3"/>
    <path class="cls-5" d="M172.41,140.24l.11-16.22c0,1.38-5.37,2.5-12,2.5s-12-1.12-12-2.5v16.23c4.67,3.78,19.64,3.24,23.89,0Z"/>
    <path class="cls-5" d="M152.33,144.76c-1.17-.34-2.61-.8-3.82-1.51v62.77s12.5,10,23.5,0l.38-62.98c-5.23,3.39-14.63,3.08-20.07,1.72Z"/>
  </g>
</svg>
